<?xml version="1.0" encoding="utf-8"?>
<!-- Generator: Adobe Illustrator 26.0.1, SVG Export Plug-In . SVG Version: 6.00 Build 0)  -->
<svg version="1.1" id="Layer_1" xmlns="http://www.w3.org/2000/svg" xmlns:xlink="http://www.w3.org/1999/xlink" x="0px" y="0px"
	 viewBox="0 0 500 500" style="enable-background:new 0 0 500 500;" xml:space="preserve">
<style type="text/css">
	.st0{fill-rule:evenodd;clip-rule:evenodd;fill:url(#SVGID_1_);}
	.st1{fill-rule:evenodd;clip-rule:evenodd;fill:url(#SVGID_00000085237056125697871350000013816458571882285964_);}
	.st2{fill-rule:evenodd;clip-rule:evenodd;fill:url(#SVGID_00000121273463369066695600000002627356615948369072_);}
	.st3{fill-rule:evenodd;clip-rule:evenodd;fill:url(#SVGID_00000030459926557052787850000003992308936217320124_);}
	.st4{fill-rule:evenodd;clip-rule:evenodd;fill:#0BABE3;}
	.st5{fill-rule:evenodd;clip-rule:evenodd;fill:#03A6DB;}
	.st6{fill-rule:evenodd;clip-rule:evenodd;fill:#009FD3;}
	.st7{fill-rule:evenodd;clip-rule:evenodd;fill:#069BCF;}
	.st8{fill-rule:evenodd;clip-rule:evenodd;fill:#049ACA;}
	.st9{fill-rule:evenodd;clip-rule:evenodd;fill:#0495C4;}
	.st10{fill-rule:evenodd;clip-rule:evenodd;fill:#0392BF;}
	.st11{fill-rule:evenodd;clip-rule:evenodd;fill:#028EBB;}
	.st12{fill-rule:evenodd;clip-rule:evenodd;fill:#0789B4;}
	.st13{fill-rule:evenodd;clip-rule:evenodd;fill:#0B87B2;}
	.st14{fill-rule:evenodd;clip-rule:evenodd;fill:#0883AD;}
	.st15{fill-rule:evenodd;clip-rule:evenodd;fill:#0B81A9;}
	.st16{fill-rule:evenodd;clip-rule:evenodd;fill:#047BA2;}
	.st17{fill-rule:evenodd;clip-rule:evenodd;fill:#03789E;}
	.st18{fill-rule:evenodd;clip-rule:evenodd;fill:#00769B;}
	.st19{fill-rule:evenodd;clip-rule:evenodd;fill:#137296;}
	.st20{fill-rule:evenodd;clip-rule:evenodd;fill:#1D6D92;}
	.st21{fill-rule:evenodd;clip-rule:evenodd;fill:#1F6A8E;}
	.st22{fill-rule:evenodd;clip-rule:evenodd;fill:#25688A;}
	.st23{fill-rule:evenodd;clip-rule:evenodd;fill:#246486;}
	.st24{fill-rule:evenodd;clip-rule:evenodd;fill:#276284;}
	.st25{fill-rule:evenodd;clip-rule:evenodd;fill:#2C5F81;}
	.st26{fill-rule:evenodd;clip-rule:evenodd;fill:#286181;}
	.st27{fill-rule:evenodd;clip-rule:evenodd;fill:#266384;}
	.st28{fill-rule:evenodd;clip-rule:evenodd;fill:#276787;}
	.st29{fill-rule:evenodd;clip-rule:evenodd;fill:#27698A;}
	.st30{fill-rule:evenodd;clip-rule:evenodd;fill:#266A8A;}
	.st31{fill-rule:evenodd;clip-rule:evenodd;fill:#266D8D;}
	.st32{fill-rule:evenodd;clip-rule:evenodd;fill:#237191;}
	.st33{fill-rule:evenodd;clip-rule:evenodd;fill:#227493;}
	.st34{fill-rule:evenodd;clip-rule:evenodd;fill:#1C7695;}
	.st35{fill-rule:evenodd;clip-rule:evenodd;fill:#217A98;}
	.st36{fill-rule:evenodd;clip-rule:evenodd;fill:#217C9B;}
	.st37{fill-rule:evenodd;clip-rule:evenodd;fill:#207F9D;}
	.st38{fill-rule:evenodd;clip-rule:evenodd;fill:#1880A0;}
	.st39{fill-rule:evenodd;clip-rule:evenodd;fill:#1685A5;}
	.st40{fill-rule:evenodd;clip-rule:evenodd;fill:#0E87A5;}
	.st41{fill-rule:evenodd;clip-rule:evenodd;fill:#018BAA;}
	.st42{fill-rule:evenodd;clip-rule:evenodd;fill:#0A8FAE;}
	.st43{fill-rule:evenodd;clip-rule:evenodd;fill:#0690B0;}
	.st44{fill-rule:evenodd;clip-rule:evenodd;fill:#0093B2;}
	.st45{fill-rule:evenodd;clip-rule:evenodd;fill:#0499B7;}
	.st46{fill-rule:evenodd;clip-rule:evenodd;fill:#089DBC;}
	.st47{fill-rule:evenodd;clip-rule:evenodd;fill:#1C9FBD;}
	.st48{fill-rule:evenodd;clip-rule:evenodd;fill:#2EA1BF;}
	.st49{fill-rule:evenodd;clip-rule:evenodd;fill:#3EA4C1;}
	.st50{fill-rule:evenodd;clip-rule:evenodd;fill:#4AA8C2;}
	.st51{fill-rule:evenodd;clip-rule:evenodd;fill:#52AAC5;}
	.st52{fill-rule:evenodd;clip-rule:evenodd;fill:#5CAEC7;}
	.st53{fill-rule:evenodd;clip-rule:evenodd;fill:#67AFC7;}
	.st54{fill-rule:evenodd;clip-rule:evenodd;fill:#6EB4CA;}
	.st55{fill-rule:evenodd;clip-rule:evenodd;fill:#76B7CC;}
	.st56{fill-rule:evenodd;clip-rule:evenodd;fill:#81BACE;}
	.st57{fill-rule:evenodd;clip-rule:evenodd;fill:#85BDD1;}
	.st58{fill-rule:evenodd;clip-rule:evenodd;fill:#8EC2D2;}
	.st59{fill-rule:evenodd;clip-rule:evenodd;fill:#97C6D4;}
	.st60{fill-rule:evenodd;clip-rule:evenodd;fill:#9FC8D7;}
	.st61{fill-rule:evenodd;clip-rule:evenodd;fill:#A6CCD8;}
	.st62{fill-rule:evenodd;clip-rule:evenodd;fill:#ADD0DC;}
	.st63{fill-rule:evenodd;clip-rule:evenodd;fill:#B6D5DD;}
	.st64{fill-rule:evenodd;clip-rule:evenodd;fill:#BDDAE0;}
	.st65{fill-rule:evenodd;clip-rule:evenodd;fill:#C5DFE2;}
	.st66{fill-rule:evenodd;clip-rule:evenodd;fill:#CCE1E4;}
	.st67{fill-rule:evenodd;clip-rule:evenodd;fill:url(#SVGID_00000154425801605751545680000004636271056732546717_);}
	.st68{fill-rule:evenodd;clip-rule:evenodd;fill:url(#SVGID_00000050659145999165609070000009533791848418618547_);}
	.st69{fill:url(#SVGID_00000183971015647986387180000000833598997086470030_);}
	.st70{fill:url(#SVGID_00000083800441571514868650000005490422439713478321_);}
	.st71{fill:url(#SVGID_00000042710051449772430070000005982854989767540376_);}
	.st72{fill:url(#SVGID_00000048475129335351091460000004148904810766316691_);}
	.st73{fill:url(#SVGID_00000123431785886420230040000007670466629552473016_);}
	.st74{fill:url(#SVGID_00000075852740411644918520000017009139250248394929_);}
	.st75{fill:url(#SVGID_00000169532912830761981410000014113096269050560180_);}
	.st76{fill:#FFFFFF;}
</style>
<linearGradient id="SVGID_1_" gradientUnits="userSpaceOnUse" x1="250.3436" y1="241.2777" x2="250.3436" y2="256.7918">
	<stop  offset="0" style="stop-color:#010101"/>
	<stop  offset="1" style="stop-color:#FFFFFF"/>
</linearGradient>
<path class="st0" d="M227.29,240.27h46.1c5.38,0,9.79,4.41,9.79,9.79l0,0c0,5.38-4.41,9.79-9.79,9.79h-46.1
	c-5.38,0-9.79-4.41-9.79-9.79l0,0C217.5,244.68,221.91,240.27,227.29,240.27z"/>
<linearGradient id="SVGID_00000088853358666037230870000008238582421127754164_" gradientUnits="userSpaceOnUse" x1="250.3436" y1="250.3304" x2="250.3436" y2="270.4974">
	<stop  offset="0" style="stop-color:#0E1717"/>
	<stop  offset="1" style="stop-color:#FFFFFF"/>
</linearGradient>
<path style="fill-rule:evenodd;clip-rule:evenodd;fill:url(#SVGID_00000088853358666037230870000008238582421127754164_);" d="
	M227.29,241.18h46.1c4.89,0,8.88,4,8.88,8.88l0,0c0,4.89-4,8.88-8.88,8.88h-46.1c-4.89,0-8.88-4-8.88-8.88l0,0
	C218.41,245.18,222.41,241.18,227.29,241.18z"/>
<linearGradient id="SVGID_00000046328008658640060410000013328402885534106259_" gradientUnits="userSpaceOnUse" x1="250.3436" y1="251.6468" x2="250.3436" y2="233.3304">
	<stop  offset="0" style="stop-color:#0E1717"/>
	<stop  offset="1" style="stop-color:#FFFFFF"/>
</linearGradient>
<path style="fill-rule:evenodd;clip-rule:evenodd;fill:url(#SVGID_00000046328008658640060410000013328402885534106259_);" d="
	M227.29,241.18h46.1c4.89,0,8.88,4,8.88,8.88l0,0c0,0.44-0.03,0.88-0.1,1.3c-6.23-0.87-17.35-2.04-32.75-2.13
	c-15.5-0.1-25.41,1.85-30.66,3.33c-0.23-0.79-0.36-1.63-0.36-2.49l0,0C218.41,245.18,222.41,241.18,227.29,241.18z"/>
<linearGradient id="SVGID_00000170973978535776795120000013951435698592268435_" gradientUnits="userSpaceOnUse" x1="227.472" y1="246.5394" x2="227.472" y2="253.4483">
	<stop  offset="0" style="stop-color:#010101"/>
	<stop  offset="1" style="stop-color:#FFFFFF"/>
</linearGradient>
<path style="fill-rule:evenodd;clip-rule:evenodd;fill:url(#SVGID_00000170973978535776795120000013951435698592268435_);" d="
	M227.47,256.24c3.4,0,6.18-2.78,6.18-6.18c0-3.4-2.78-6.18-6.18-6.18c-3.4,0-6.18,2.78-6.18,6.18
	C221.29,253.47,224.07,256.24,227.47,256.24z"/>
<path class="st4" d="M227.47,255.91c3.22,0,5.84-2.62,5.84-5.84c0-3.22-2.62-5.84-5.84-5.84c-3.22,0-5.84,2.62-5.84,5.84
	C221.63,253.28,224.25,255.91,227.47,255.91z"/>
<g>
	<path class="st5" d="M227.47,244.3c3.2,0,5.79,2.6,5.79,5.8s-2.59,5.8-5.79,5.8c-3.2,0-5.8-2.6-5.8-5.8S224.27,244.3,227.47,244.3z
		"/>
	<path class="st6" d="M227.47,244.38c3.17,0,5.75,2.57,5.75,5.75c0,3.17-2.57,5.75-5.75,5.75c-3.17,0-5.75-2.57-5.75-5.75
		C221.73,246.95,224.3,244.38,227.47,244.38z"/>
	<path class="st7" d="M227.47,244.46c3.15,0,5.7,2.55,5.7,5.7c0,3.15-2.55,5.7-5.7,5.7c-3.15,0-5.7-2.55-5.7-5.7
		C221.77,247.01,224.33,244.46,227.47,244.46z"/>
	<path class="st8" d="M227.47,244.54c3.12,0,5.65,2.53,5.65,5.65c0,3.12-2.53,5.65-5.65,5.65c-3.12,0-5.65-2.53-5.65-5.65
		C221.82,247.07,224.35,244.54,227.47,244.54z"/>
	<path class="st9" d="M227.47,244.62c3.09,0,5.6,2.51,5.6,5.6c0,3.09-2.51,5.6-5.6,5.6c-3.09,0-5.6-2.51-5.6-5.6
		C221.87,247.12,224.38,244.62,227.47,244.62z"/>
	<circle class="st10" cx="227.47" cy="250.25" r="5.55"/>
	<path class="st11" d="M227.47,244.78c3.04,0,5.5,2.46,5.5,5.5c0,3.04-2.46,5.5-5.5,5.5c-3.04,0-5.5-2.46-5.5-5.5
		C221.97,247.24,224.43,244.78,227.47,244.78z"/>
	<path class="st12" d="M227.47,244.86c3.01,0,5.45,2.44,5.45,5.45c0,3.01-2.44,5.45-5.45,5.45c-3.01,0-5.45-2.44-5.45-5.45
		C222.02,247.3,224.46,244.86,227.47,244.86z"/>
	<path class="st13" d="M227.47,244.94c2.98,0,5.4,2.42,5.4,5.4s-2.42,5.4-5.4,5.4c-2.98,0-5.4-2.42-5.4-5.4
		S224.49,244.94,227.47,244.94z"/>
	<path class="st14" d="M227.47,245.02c2.96,0,5.35,2.4,5.35,5.35c0,2.96-2.4,5.35-5.35,5.35c-2.96,0-5.35-2.4-5.35-5.35
		C222.12,247.42,224.52,245.02,227.47,245.02z"/>
	<path class="st15" d="M227.47,245.1c2.93,0,5.3,2.38,5.3,5.3c0,2.93-2.38,5.3-5.3,5.3c-2.93,0-5.3-2.38-5.3-5.3
		C222.17,247.47,224.54,245.1,227.47,245.1z"/>
	<path class="st16" d="M227.47,245.18c2.9,0,5.25,2.35,5.25,5.25c0,2.9-2.35,5.25-5.25,5.25c-2.9,0-5.25-2.35-5.25-5.25
		C222.22,247.53,224.57,245.18,227.47,245.18z"/>
	<path class="st17" d="M227.47,245.26c2.87,0,5.21,2.33,5.21,5.21c0,2.87-2.33,5.21-5.21,5.21c-2.88,0-5.21-2.33-5.21-5.21
		C222.27,247.59,224.6,245.26,227.47,245.26z"/>
	<path class="st18" d="M227.47,245.34c2.85,0,5.16,2.31,5.16,5.16c0,2.85-2.31,5.16-5.16,5.16c-2.85,0-5.16-2.31-5.16-5.16
		C222.32,247.65,224.62,245.34,227.47,245.34z"/>
	<path class="st19" d="M227.47,245.42c2.82,0,5.11,2.29,5.11,5.11c0,2.82-2.29,5.11-5.11,5.11s-5.11-2.29-5.11-5.11
		C222.37,247.71,224.65,245.42,227.47,245.42z"/>
	<path class="st20" d="M227.47,245.5c2.79,0,5.06,2.26,5.06,5.06c0,2.79-2.26,5.06-5.06,5.06c-2.79,0-5.06-2.26-5.06-5.06
		C222.41,247.76,224.68,245.5,227.47,245.5z"/>
	<path class="st21" d="M227.47,245.58c2.77,0,5.01,2.24,5.01,5.01c0,2.77-2.24,5.01-5.01,5.01c-2.77,0-5.01-2.24-5.01-5.01
		C222.46,247.82,224.71,245.58,227.47,245.58z"/>
	<path class="st22" d="M227.47,245.66c2.74,0,4.96,2.22,4.96,4.96c0,2.74-2.22,4.96-4.96,4.96c-2.74,0-4.96-2.22-4.96-4.96
		C222.51,247.88,224.73,245.66,227.47,245.66z"/>
	<path class="st23" d="M227.47,245.74c2.71,0,4.91,2.2,4.91,4.91c0,2.71-2.2,4.91-4.91,4.91c-2.71,0-4.91-2.2-4.91-4.91
		C222.56,247.94,224.76,245.74,227.47,245.74z"/>
	<path class="st24" d="M227.47,245.82c2.68,0,4.86,2.18,4.86,4.86c0,2.68-2.18,4.86-4.86,4.86s-4.86-2.18-4.86-4.86
		C222.61,248,224.79,245.82,227.47,245.82z"/>
</g>
<path class="st25" d="M227.47,255.52c2.65,0,4.81-2.16,4.81-4.81c0-2.65-2.16-4.81-4.81-4.81c-2.65,0-4.81,2.16-4.81,4.81
	C222.66,253.36,224.82,255.52,227.47,255.52z"/>
<g>
	<path class="st26" d="M227.47,246.04c2.62,0,4.74,2.12,4.74,4.74c0,2.62-2.12,4.74-4.74,4.74c-2.62,0-4.74-2.12-4.74-4.74
		C222.73,248.16,224.85,246.04,227.47,246.04z"/>
	<path class="st27" d="M227.47,246.17c2.58,0,4.67,2.09,4.67,4.67s-2.09,4.67-4.67,4.67c-2.58,0-4.67-2.09-4.67-4.67
		S224.89,246.17,227.47,246.17z"/>
	<path class="st28" d="M227.46,246.31c2.54,0,4.6,2.06,4.6,4.6c0,2.54-2.06,4.6-4.6,4.6c-2.54,0-4.6-2.06-4.6-4.6
		C222.86,248.37,224.92,246.31,227.46,246.31z"/>
	<path class="st29" d="M227.46,246.45c2.5,0,4.53,2.03,4.53,4.53c0,2.5-2.03,4.53-4.53,4.53c-2.5,0-4.53-2.03-4.53-4.53
		C222.93,248.47,224.96,246.45,227.46,246.45z"/>
	<path class="st30" d="M227.46,246.58c2.46,0,4.46,2,4.46,4.46c0,2.46-2,4.46-4.46,4.46c-2.46,0-4.46-2-4.46-4.46
		C223,248.58,224.99,246.58,227.46,246.58z"/>
	<path class="st31" d="M227.45,246.72c2.42,0,4.39,1.96,4.39,4.39c0,2.42-1.96,4.39-4.39,4.39c-2.42,0-4.39-1.96-4.39-4.39
		C223.07,248.68,225.03,246.72,227.45,246.72z"/>
	<path class="st32" d="M227.45,246.86c2.38,0,4.32,1.93,4.32,4.32c0,2.38-1.93,4.32-4.32,4.32c-2.38,0-4.32-1.93-4.32-4.32
		C223.13,248.79,225.07,246.86,227.45,246.86z"/>
	<path class="st33" d="M227.45,246.99c2.34,0,4.25,1.9,4.25,4.25c0,2.34-1.9,4.25-4.25,4.25c-2.34,0-4.25-1.9-4.25-4.25
		C223.2,248.9,225.1,246.99,227.45,246.99z"/>
	<path class="st34" d="M227.44,247.13c2.31,0,4.17,1.87,4.17,4.17s-1.87,4.17-4.17,4.17c-2.3,0-4.17-1.87-4.17-4.17
		S225.14,247.13,227.44,247.13z"/>
	<path class="st35" d="M227.44,247.27c2.27,0,4.1,1.84,4.1,4.1c0,2.27-1.84,4.1-4.1,4.1s-4.1-1.84-4.1-4.1
		C223.34,249.11,225.17,247.27,227.44,247.27z"/>
	<path class="st36" d="M227.44,247.41c2.23,0,4.03,1.8,4.03,4.03c0,2.23-1.81,4.03-4.03,4.03c-2.23,0-4.03-1.81-4.03-4.03
		C223.4,249.21,225.21,247.41,227.44,247.41z"/>
	<path class="st37" d="M227.43,247.54c2.19,0,3.96,1.77,3.96,3.96c0,2.19-1.77,3.96-3.96,3.96c-2.19,0-3.96-1.78-3.96-3.96
		C223.47,249.32,225.25,247.54,227.43,247.54z"/>
	<path class="st38" d="M227.43,247.68c2.15,0,3.89,1.74,3.89,3.89c0,2.15-1.74,3.89-3.89,3.89c-2.15,0-3.89-1.74-3.89-3.89
		C223.54,249.42,225.28,247.68,227.43,247.68z"/>
	<path class="st39" d="M227.43,247.82c2.11,0,3.82,1.71,3.82,3.82c0,2.11-1.71,3.82-3.82,3.82c-2.11,0-3.82-1.71-3.82-3.82
		C223.61,249.53,225.32,247.82,227.43,247.82z"/>
	<path class="st40" d="M227.42,247.95c2.07,0,3.75,1.68,3.75,3.75c0,2.07-1.68,3.75-3.75,3.75c-2.07,0-3.75-1.68-3.75-3.75
		C223.67,249.63,225.35,247.95,227.42,247.95z"/>
	<path class="st41" d="M227.42,248.09c2.03,0,3.68,1.65,3.68,3.68c0,2.03-1.65,3.68-3.68,3.68c-2.03,0-3.68-1.65-3.68-3.68
		C223.74,249.74,225.39,248.09,227.42,248.09z"/>
	<circle class="st42" cx="227.42" cy="251.83" r="3.61"/>
	<path class="st43" d="M227.41,248.36c1.95,0,3.54,1.58,3.54,3.54c0,1.95-1.58,3.54-3.54,3.54c-1.95,0-3.54-1.58-3.54-3.54
		C223.88,249.95,225.46,248.36,227.41,248.36z"/>
	<path class="st44" d="M227.41,248.5c1.91,0,3.47,1.55,3.47,3.47c0,1.91-1.55,3.46-3.47,3.46c-1.91,0-3.47-1.55-3.47-3.46
		C223.95,250.05,225.5,248.5,227.41,248.5z"/>
	<path class="st45" d="M227.41,248.64c1.88,0,3.4,1.52,3.4,3.4c0,1.87-1.52,3.4-3.4,3.4c-1.87,0-3.39-1.52-3.39-3.4
		C224.01,250.16,225.53,248.64,227.41,248.64z"/>
</g>
<circle class="st46" cx="227.41" cy="252.1" r="3.32"/>
<g>
	<path class="st47" d="M227.4,248.93c1.81,0,3.27,1.45,3.27,3.24c0,1.79-1.46,3.24-3.27,3.24s-3.27-1.45-3.27-3.24
		C224.13,250.38,225.6,248.93,227.4,248.93z"/>
	<path class="st48" d="M227.4,249.08c1.78,0,3.22,1.41,3.22,3.16c0,1.74-1.44,3.16-3.22,3.16c-1.78,0-3.22-1.41-3.22-3.16
		C224.18,250.5,225.62,249.08,227.4,249.08z"/>
	<path class="st49" d="M227.4,249.24c1.75,0,3.16,1.38,3.16,3.07c0,1.7-1.42,3.07-3.16,3.07c-1.75,0-3.16-1.38-3.16-3.07
		C224.23,250.61,225.65,249.24,227.4,249.24z"/>
	<path class="st50" d="M227.39,249.39c1.72,0,3.11,1.34,3.11,2.99c0,1.65-1.39,2.99-3.11,2.99c-1.72,0-3.11-1.34-3.11-2.99
		C224.28,250.73,225.68,249.39,227.39,249.39z"/>
	<path class="st51" d="M227.39,249.55c1.69,0,3.05,1.3,3.05,2.91c0,1.61-1.37,2.91-3.05,2.91c-1.69,0-3.05-1.3-3.05-2.91
		C224.34,250.85,225.7,249.55,227.39,249.55z"/>
	<path class="st52" d="M227.39,249.7c1.66,0,3,1.26,3,2.83c0,1.56-1.34,2.82-3,2.82c-1.66,0-3-1.26-3-2.82
		C224.39,250.97,225.73,249.7,227.39,249.7z"/>
	<ellipse class="st53" cx="227.38" cy="252.6" rx="2.95" ry="2.74"/>
	<ellipse class="st54" cx="227.38" cy="252.67" rx="2.89" ry="2.66"/>
	<path class="st55" d="M227.38,250.17c1.57,0,2.84,1.15,2.84,2.58c0,1.42-1.27,2.58-2.84,2.58c-1.57,0-2.84-1.15-2.84-2.58
		C224.54,251.32,225.81,250.17,227.38,250.17z"/>
	<path class="st56" d="M227.37,250.32c1.54,0,2.78,1.12,2.78,2.49c0,1.38-1.25,2.49-2.78,2.49c-1.54,0-2.78-1.12-2.78-2.49
		C224.59,251.44,225.84,250.32,227.37,250.32z"/>
	<path class="st57" d="M227.37,250.48c1.51,0,2.73,1.08,2.73,2.41c0,1.33-1.22,2.41-2.73,2.41c-1.51,0-2.73-1.08-2.73-2.41
		C224.64,251.55,225.86,250.48,227.37,250.48z"/>
	<path class="st58" d="M227.37,250.63c1.48,0,2.67,1.04,2.67,2.33c0,1.28-1.2,2.33-2.67,2.33c-1.48,0-2.67-1.04-2.67-2.33
		C224.69,251.67,225.89,250.63,227.37,250.63z"/>
	<path class="st59" d="M227.36,250.78c1.45,0,2.62,1,2.62,2.24c0,1.24-1.17,2.24-2.62,2.24c-1.45,0-2.62-1-2.62-2.24
		C224.74,251.79,225.92,250.78,227.36,250.78z"/>
	<path class="st60" d="M227.36,250.94c1.42,0,2.57,0.97,2.57,2.16c0,1.19-1.15,2.16-2.57,2.16c-1.42,0-2.57-0.97-2.57-2.16
		C224.79,251.91,225.94,250.94,227.36,250.94z"/>
	<path class="st61" d="M227.36,251.09c1.39,0,2.51,0.93,2.51,2.08c0,1.15-1.12,2.08-2.51,2.08c-1.39,0-2.51-0.93-2.51-2.08
		C224.84,252.02,225.97,251.09,227.36,251.09z"/>
	<path class="st62" d="M227.35,251.25c1.36,0,2.46,0.89,2.46,1.99c0,1.1-1.1,1.99-2.46,1.99c-1.36,0-2.46-0.89-2.46-1.99
		C224.9,252.14,226,251.25,227.35,251.25z"/>
	<path class="st63" d="M227.35,251.4c1.33,0,2.4,0.86,2.4,1.91s-1.08,1.91-2.4,1.91c-1.33,0-2.41-0.85-2.41-1.91
		S226.02,251.4,227.35,251.4z"/>
	<path class="st64" d="M227.35,251.56c1.3,0,2.35,0.82,2.35,1.83s-1.05,1.83-2.35,1.83c-1.3,0-2.35-0.82-2.35-1.83
		S226.05,251.56,227.35,251.56z"/>
	<path class="st65" d="M227.34,251.71c1.27,0,2.3,0.78,2.3,1.74c0,0.96-1.03,1.74-2.3,1.74s-2.3-0.78-2.3-1.74
		C225.05,252.49,226.08,251.71,227.34,251.71z"/>
	<path class="st66" d="M227.34,251.87c1.24,0,2.24,0.74,2.24,1.66c0,0.92-1,1.66-2.24,1.66c-1.24,0-2.24-0.74-2.24-1.66
		C225.1,252.61,226.1,251.87,227.34,251.87z"/>
</g>
<linearGradient id="SVGID_00000081623407027229137480000003704570100897170820_" gradientUnits="userSpaceOnUse" x1="227.1501" y1="251.4495" x2="227.442" y2="254.786">
	<stop  offset="0" style="stop-color:#D3E7E8"/>
	<stop  offset="1" style="stop-color:#FFFFFF"/>
</linearGradient>
<path style="fill-rule:evenodd;clip-rule:evenodd;fill:url(#SVGID_00000081623407027229137480000003704570100897170820_);" d="
	M227.34,255.18c1.21,0,2.19-0.71,2.19-1.58c0-0.87-0.98-1.58-2.19-1.58c-1.21,0-2.19,0.71-2.19,1.58
	C225.15,254.47,226.13,255.18,227.34,255.18z"/>
<linearGradient id="SVGID_00000101805827311915962660000003141175269563077020_" gradientUnits="userSpaceOnUse" x1="227.2149" y1="247.9886" x2="227.3101" y2="242.537">
	<stop  offset="0" style="stop-color:#21B9EC"/>
	<stop  offset="1" style="stop-color:#FFFFFF"/>
</linearGradient>
<path style="fill-rule:evenodd;clip-rule:evenodd;fill:url(#SVGID_00000101805827311915962660000003141175269563077020_);" d="
	M227.44,244.4c1.67,0,3.14,0.67,4.07,1.67c0.42,0.46,0.2,1.07-0.34,1.04c-2.06-0.14-3.61,0.5-5.5,0.82
	c-0.97,0.16-1.73,0.14-2.31,0.05c-0.76-0.12-0.7-0.87-0.46-1.24C223.72,245.51,225.47,244.4,227.44,244.4z"/>
<g>
	
		<linearGradient id="SVGID_00000070838382844236743180000012910305646374620598_" gradientUnits="userSpaceOnUse" x1="236.2581" y1="249.5662" x2="241.1516" y2="249.5662">
		<stop  offset="0" style="stop-color:#FFFFFF"/>
		<stop  offset="1" style="stop-color:#BDBEC0"/>
	</linearGradient>
	<path style="fill:url(#SVGID_00000070838382844236743180000012910305646374620598_);" d="M241.02,247.03
		c0.05,0.03,0.08,0.06,0.1,0.1c0.02,0.04,0.02,0.09-0.01,0.15l-0.68,0.96c-0.03,0.04-0.06,0.07-0.09,0.08
		c-0.03,0.01-0.07,0-0.12-0.03c-0.13-0.1-0.27-0.17-0.43-0.23c-0.16-0.05-0.32-0.08-0.5-0.08c-0.22,0-0.42,0.04-0.6,0.12
		c-0.18,0.08-0.34,0.2-0.48,0.34c-0.13,0.14-0.24,0.31-0.31,0.5c-0.07,0.19-0.11,0.4-0.11,0.62c0,0.22,0.04,0.42,0.11,0.61
		c0.08,0.19,0.18,0.36,0.31,0.5c0.13,0.14,0.29,0.26,0.48,0.34c0.18,0.08,0.39,0.12,0.6,0.12c0.18,0,0.34-0.03,0.5-0.08
		c0.16-0.05,0.3-0.13,0.44-0.23c0.05-0.03,0.09-0.04,0.12-0.04c0.03,0,0.06,0.03,0.1,0.07l0.68,0.98c0.03,0.06,0.03,0.11,0.01,0.15
		s-0.05,0.07-0.1,0.1c-0.25,0.17-0.52,0.3-0.81,0.39c-0.29,0.09-0.59,0.14-0.91,0.14c-0.28,0-0.55-0.04-0.81-0.11
		c-0.26-0.07-0.5-0.17-0.73-0.31c-0.23-0.13-0.43-0.29-0.62-0.48c-0.18-0.18-0.34-0.39-0.48-0.62c-0.13-0.23-0.24-0.47-0.31-0.73
		c-0.07-0.26-0.11-0.53-0.11-0.81c0-0.28,0.04-0.55,0.11-0.81c0.07-0.26,0.17-0.5,0.31-0.73c0.13-0.23,0.29-0.44,0.48-0.62
		c0.19-0.19,0.39-0.35,0.62-0.48s0.47-0.23,0.73-0.31c0.26-0.07,0.53-0.11,0.81-0.11c0.32,0,0.62,0.04,0.91,0.13
		C240.5,246.73,240.77,246.86,241.02,247.03z"/>
	
		<linearGradient id="SVGID_00000173856578599840832580000015035906151725340587_" gradientUnits="userSpaceOnUse" x1="242.134" y1="249.5662" x2="247.0217" y2="249.5662">
		<stop  offset="0" style="stop-color:#FFFFFF"/>
		<stop  offset="1" style="stop-color:#BDBEC0"/>
	</linearGradient>
	<path style="fill:url(#SVGID_00000173856578599840832580000015035906151725340587_);" d="M242.13,246.78c0-0.06,0.01-0.1,0.04-0.13
		c0.03-0.03,0.07-0.05,0.13-0.05h2.58c0.27,0,0.53,0.05,0.77,0.15c0.24,0.1,0.45,0.24,0.63,0.42c0.18,0.18,0.32,0.38,0.42,0.62
		c0.1,0.24,0.15,0.49,0.15,0.75c0,0.18-0.02,0.35-0.07,0.52c-0.05,0.16-0.12,0.32-0.21,0.46c-0.09,0.14-0.19,0.27-0.31,0.39
		c-0.12,0.12-0.25,0.21-0.4,0.3l1.03,1.94c0.02,0.04,0.04,0.08,0.07,0.13c0.03,0.05,0.04,0.09,0.04,0.13c0,0.04-0.01,0.08-0.04,0.1
		s-0.07,0.03-0.11,0.03h-1.37c-0.04,0-0.09-0.01-0.12-0.04s-0.06-0.06-0.07-0.11l-0.97-1.83h-0.65v1.8c0,0.11-0.06,0.17-0.18,0.17
		h-1.19c-0.05,0-0.1-0.01-0.13-0.04c-0.03-0.03-0.05-0.07-0.05-0.13V246.78z M245.27,248.56c0-0.08-0.01-0.16-0.04-0.24
		c-0.03-0.08-0.07-0.15-0.12-0.22c-0.05-0.07-0.12-0.12-0.19-0.17c-0.07-0.04-0.16-0.07-0.25-0.09c-0.07,0-0.14-0.01-0.21-0.01
		s-0.14-0.01-0.21-0.01h-0.55v1.47h0.74c0.05,0,0.09,0,0.13,0c0.04,0,0.08-0.01,0.12-0.01c0.09-0.01,0.18-0.04,0.25-0.08
		c0.07-0.04,0.14-0.1,0.19-0.16c0.05-0.07,0.09-0.14,0.12-0.22C245.25,248.72,245.27,248.64,245.27,248.56z"/>
	
		<linearGradient id="SVGID_00000175306078960565515770000010985658239758715286_" gradientUnits="userSpaceOnUse" x1="247.2053" y1="249.5662" x2="252.6497" y2="249.5662">
		<stop  offset="0" style="stop-color:#FFFFFF"/>
		<stop  offset="1" style="stop-color:#BDBEC0"/>
	</linearGradient>
	<path style="fill:url(#SVGID_00000175306078960565515770000010985658239758715286_);" d="M249.93,248.79l0.97-2.07
		c0.02-0.03,0.03-0.05,0.04-0.07c0.01-0.01,0.02-0.02,0.03-0.03s0.02-0.01,0.03-0.01c0.01,0,0.03,0,0.04-0.01h1.54
		c0.02,0,0.03,0.01,0.05,0.02c0.01,0.01,0.02,0.03,0.02,0.04c0,0.03-0.02,0.06-0.06,0.1l-1.9,3.36v2.24c0,0.13-0.06,0.19-0.18,0.19
		h-1.2c-0.05,0-0.09-0.02-0.12-0.05c-0.03-0.03-0.04-0.08-0.04-0.14v-2.24l-1.89-3.35c-0.04-0.03-0.05-0.07-0.05-0.1
		c0-0.02,0.01-0.03,0.02-0.04c0.01-0.01,0.03-0.02,0.04-0.02h1.54c0.02,0.01,0.03,0.01,0.04,0.01c0.01,0,0.02,0.01,0.03,0.01
		c0.01,0.01,0.02,0.02,0.03,0.03c0.01,0.02,0.03,0.04,0.04,0.07L249.93,248.79z"/>
	
		<linearGradient id="SVGID_00000029762299464432425150000016664885258656831632_" gradientUnits="userSpaceOnUse" x1="253.3176" y1="249.5662" x2="257.8977" y2="249.5662">
		<stop  offset="0" style="stop-color:#FFFFFF"/>
		<stop  offset="1" style="stop-color:#BDBEC0"/>
	</linearGradient>
	<path style="fill:url(#SVGID_00000029762299464432425150000016664885258656831632_);" d="M253.32,246.78c0-0.06,0.01-0.1,0.04-0.13
		c0.03-0.03,0.07-0.05,0.13-0.05h2.56c0.18,0,0.36,0.03,0.52,0.08c0.16,0.05,0.31,0.12,0.45,0.21c0.14,0.09,0.26,0.2,0.37,0.32
		s0.2,0.26,0.28,0.4c0.08,0.14,0.13,0.3,0.17,0.45c0.04,0.16,0.06,0.32,0.06,0.48c0,0.24-0.04,0.47-0.13,0.7
		c-0.09,0.23-0.21,0.43-0.37,0.61c-0.16,0.18-0.35,0.32-0.58,0.43c-0.22,0.11-0.47,0.17-0.74,0.17h-1.21v1.9
		c0,0.11-0.06,0.17-0.18,0.17h-1.19c-0.05,0-0.1-0.01-0.13-0.04c-0.03-0.03-0.05-0.07-0.05-0.13V246.78z M256.33,248.53
		c0-0.08-0.01-0.16-0.04-0.24s-0.07-0.15-0.12-0.21s-0.12-0.11-0.19-0.15c-0.08-0.04-0.16-0.06-0.26-0.06h-0.85v1.34h0.85
		c0.1,0,0.18-0.02,0.26-0.06c0.08-0.04,0.14-0.09,0.19-0.15s0.09-0.13,0.12-0.21S256.33,248.62,256.33,248.53z"/>
	
		<linearGradient id="SVGID_00000109014311379640279250000001085691316145107088_" gradientUnits="userSpaceOnUse" x1="258.4417" y1="249.5662" x2="263.1248" y2="249.5662">
		<stop  offset="0" style="stop-color:#FFFFFF"/>
		<stop  offset="1" style="stop-color:#BDBEC0"/>
	</linearGradient>
	<path style="fill:url(#SVGID_00000109014311379640279250000001085691316145107088_);" d="M258.44,246.77c0-0.05,0.02-0.1,0.05-0.13
		c0.04-0.03,0.08-0.05,0.13-0.05h4.3c0.05,0,0.09,0.01,0.13,0.04c0.04,0.03,0.06,0.07,0.06,0.13v0.99c0,0.05-0.02,0.09-0.05,0.14
		s-0.08,0.07-0.14,0.07h-1.38v4.38c0,0.05-0.02,0.09-0.05,0.13c-0.03,0.04-0.08,0.06-0.14,0.06h-1.17c-0.04,0-0.09-0.02-0.13-0.05
		c-0.04-0.04-0.06-0.08-0.06-0.13v-4.38h-1.38c-0.05,0-0.1-0.02-0.13-0.05c-0.04-0.03-0.05-0.08-0.05-0.15V246.77z"/>
	
		<linearGradient id="SVGID_00000162313757127854252210000009304353202717710214_" gradientUnits="userSpaceOnUse" x1="263.4568" y1="249.5662" x2="269.5769" y2="249.5662">
		<stop  offset="0" style="stop-color:#FFFFFF"/>
		<stop  offset="1" style="stop-color:#BDBEC0"/>
	</linearGradient>
	<path style="fill:url(#SVGID_00000162313757127854252210000009304353202717710214_);" d="M263.46,249.57
		c0-0.28,0.04-0.55,0.11-0.81c0.07-0.26,0.17-0.5,0.31-0.73c0.13-0.23,0.29-0.44,0.48-0.62c0.19-0.19,0.39-0.35,0.62-0.48
		s0.47-0.23,0.73-0.31c0.26-0.07,0.53-0.11,0.81-0.11c0.28,0,0.55,0.04,0.81,0.11s0.51,0.18,0.73,0.31
		c0.23,0.13,0.43,0.29,0.62,0.48c0.19,0.19,0.35,0.39,0.48,0.62c0.13,0.23,0.24,0.47,0.31,0.73s0.11,0.53,0.11,0.81
		c0,0.28-0.04,0.55-0.11,0.81s-0.18,0.5-0.31,0.73c-0.13,0.22-0.29,0.43-0.48,0.62c-0.19,0.19-0.39,0.34-0.62,0.48
		c-0.23,0.13-0.47,0.24-0.73,0.31c-0.26,0.07-0.53,0.11-0.81,0.11c-0.28,0-0.55-0.04-0.81-0.11c-0.26-0.07-0.5-0.17-0.73-0.31
		c-0.23-0.13-0.43-0.29-0.62-0.48c-0.19-0.18-0.34-0.39-0.48-0.62c-0.13-0.23-0.24-0.47-0.31-0.73
		C263.49,250.13,263.46,249.85,263.46,249.57z M265,249.57c0,0.22,0.04,0.43,0.11,0.62c0.08,0.19,0.18,0.36,0.31,0.5
		c0.13,0.14,0.29,0.25,0.48,0.34c0.18,0.08,0.39,0.12,0.61,0.12c0.22,0,0.42-0.04,0.61-0.12c0.19-0.08,0.34-0.19,0.48-0.34
		c0.13-0.14,0.24-0.31,0.31-0.5c0.07-0.19,0.11-0.4,0.11-0.62c0-0.22-0.04-0.42-0.11-0.62s-0.18-0.36-0.31-0.51
		c-0.13-0.14-0.29-0.26-0.48-0.34c-0.19-0.08-0.39-0.12-0.61-0.12c-0.22,0-0.42,0.04-0.61,0.12c-0.18,0.08-0.34,0.2-0.48,0.34
		c-0.13,0.14-0.24,0.31-0.31,0.51C265.04,249.14,265,249.35,265,249.57z"/>
	
		<linearGradient id="SVGID_00000163756049170115534740000007840298503669426619_" gradientUnits="userSpaceOnUse" x1="269.9607" y1="249.5403" x2="274.5965" y2="249.5403">
		<stop  offset="0" style="stop-color:#FFFFFF"/>
		<stop  offset="1" style="stop-color:#BDBEC0"/>
	</linearGradient>
	<path style="fill:url(#SVGID_00000163756049170115534740000007840298503669426619_);" d="M271.05,250.62
		c0.05,0.04,0.1,0.09,0.17,0.15c0.07,0.06,0.15,0.12,0.24,0.19c0.14,0.09,0.27,0.16,0.4,0.21c0.13,0.05,0.27,0.08,0.42,0.08
		c0.14,0,0.25-0.02,0.34-0.05c0.09-0.03,0.17-0.07,0.22-0.12c0.05-0.05,0.09-0.11,0.11-0.18c0.02-0.07,0.03-0.14,0.03-0.21
		c0-0.08-0.03-0.16-0.09-0.22c-0.06-0.07-0.14-0.12-0.23-0.17c-0.09-0.05-0.18-0.09-0.28-0.13s-0.18-0.07-0.26-0.09
		c-0.32-0.11-0.6-0.23-0.84-0.36c-0.24-0.13-0.44-0.27-0.6-0.43s-0.28-0.33-0.36-0.52s-0.12-0.4-0.12-0.64
		c0-0.25,0.05-0.47,0.15-0.67c0.1-0.2,0.24-0.38,0.43-0.52c0.19-0.14,0.41-0.26,0.67-0.33c0.26-0.08,0.55-0.12,0.88-0.12
		c0.24,0,0.48,0.03,0.7,0.08s0.44,0.14,0.66,0.26c0.09,0.05,0.18,0.11,0.26,0.17c0.08,0.06,0.15,0.11,0.21,0.17
		c0.06,0.05,0.11,0.1,0.15,0.15s0.05,0.09,0.05,0.12s-0.01,0.07-0.03,0.1c-0.02,0.03-0.04,0.06-0.08,0.1l-0.61,0.65
		c-0.05,0.05-0.09,0.07-0.14,0.07c-0.04,0-0.07-0.01-0.1-0.03s-0.06-0.05-0.1-0.08l-0.04-0.03c-0.05-0.04-0.11-0.09-0.18-0.14
		c-0.07-0.05-0.14-0.09-0.21-0.13c-0.07-0.04-0.15-0.07-0.24-0.1c-0.08-0.03-0.17-0.04-0.25-0.04c-0.09,0-0.17,0.01-0.25,0.02
		s-0.15,0.04-0.2,0.07s-0.11,0.07-0.14,0.13c-0.04,0.05-0.05,0.12-0.05,0.19c0,0.07,0.02,0.14,0.06,0.19
		c0.04,0.05,0.09,0.11,0.17,0.15c0.07,0.05,0.17,0.09,0.28,0.13c0.11,0.04,0.24,0.09,0.39,0.13c0.28,0.09,0.54,0.19,0.78,0.29
		c0.24,0.1,0.45,0.22,0.62,0.36c0.17,0.14,0.31,0.31,0.41,0.5s0.15,0.43,0.15,0.71c0,0.29-0.06,0.56-0.18,0.8
		c-0.12,0.24-0.28,0.44-0.49,0.61c-0.21,0.17-0.46,0.3-0.74,0.39c-0.28,0.09-0.59,0.14-0.91,0.14c-0.31,0-0.61-0.06-0.9-0.17
		s-0.57-0.26-0.83-0.44c-0.11-0.08-0.2-0.15-0.27-0.23s-0.13-0.13-0.17-0.18l-0.01-0.01c0-0.01,0-0.01-0.01-0.01
		c0,0-0.01,0-0.01-0.01c0,0-0.01-0.01-0.01-0.01c0,0-0.01,0-0.01-0.01c-0.06-0.07-0.09-0.12-0.09-0.16c0-0.05,0.03-0.1,0.09-0.15
		l0.69-0.66c0.06-0.04,0.1-0.06,0.14-0.06c0.02,0,0.05,0.01,0.08,0.02S271.02,250.58,271.05,250.62z"/>
</g>
<path class="st76" d="M246.29,247.17c-0.18-0.18-0.39-0.32-0.63-0.42c-0.24-0.1-0.5-0.15-0.77-0.15h-2.58
	c-0.06,0-0.1,0.02-0.13,0.05c-0.03,0.03-0.04,0.08-0.04,0.13v2.56c0.54-0.02,1.07-0.04,1.63-0.06h-0.08v-1.47h0.55
	c0.08,0,0.15,0,0.21,0.01s0.14,0.01,0.21,0.01c0.09,0.01,0.17,0.04,0.25,0.09c0.08,0.05,0.14,0.1,0.19,0.17
	c0.05,0.07,0.09,0.14,0.12,0.22c0.03,0.08,0.04,0.16,0.04,0.24c0,0.09-0.01,0.17-0.04,0.25c-0.03,0.08-0.07,0.16-0.12,0.22
	c-0.05,0.06-0.11,0.12-0.19,0.16c-0.07,0.04-0.16,0.07-0.25,0.08c0.67-0.01,1.34-0.03,2.04-0.04c0.02-0.06,0.06-0.11,0.08-0.18
	c0.05-0.16,0.07-0.34,0.07-0.52c0-0.27-0.05-0.52-0.15-0.75C246.61,247.55,246.47,247.34,246.29,247.17z"/>
<path class="st76" d="M251.19,249.25l1.41-2.49c0.04-0.04,0.06-0.07,0.06-0.1c0-0.02-0.01-0.03-0.02-0.04
	c-0.01-0.01-0.03-0.02-0.05-0.02h-1.54c-0.02,0.01-0.03,0.01-0.04,0.01c-0.01,0-0.02,0.01-0.03,0.01s-0.02,0.02-0.03,0.03
	c-0.01,0.02-0.02,0.04-0.04,0.07l-0.97,2.07l-0.97-2.07c-0.02-0.03-0.03-0.05-0.04-0.07c-0.01-0.01-0.02-0.02-0.03-0.03
	c-0.01-0.01-0.02-0.01-0.03-0.01c-0.01,0-0.03,0-0.04-0.01h-1.54c-0.02,0-0.03,0.01-0.04,0.02c-0.01,0.01-0.02,0.03-0.02,0.04
	c0,0.03,0.02,0.07,0.05,0.1l1.4,2.48c0.26,0,0.51,0,0.77,0C250.03,249.23,250.6,249.24,251.19,249.25z"/>
<path class="st76" d="M257.7,249.39c0.02-0.05,0.05-0.09,0.07-0.15c0.09-0.23,0.13-0.46,0.13-0.7c0-0.16-0.02-0.32-0.06-0.48
	c-0.04-0.16-0.1-0.31-0.17-0.45c-0.08-0.14-0.17-0.28-0.28-0.4s-0.23-0.23-0.37-0.32c-0.14-0.09-0.29-0.16-0.45-0.21
	c-0.16-0.05-0.34-0.08-0.52-0.08h-2.56c-0.06,0-0.1,0.02-0.13,0.05c-0.03,0.03-0.04,0.08-0.04,0.13v2.5
	C254.82,249.31,256.29,249.34,257.7,249.39z M254.87,247.86h0.85c0.1,0,0.18,0.02,0.26,0.06c0.08,0.04,0.14,0.09,0.19,0.15
	s0.09,0.13,0.12,0.21s0.04,0.16,0.04,0.24c0,0.08-0.01,0.17-0.04,0.25s-0.07,0.15-0.12,0.21s-0.12,0.11-0.19,0.15
	c-0.08,0.04-0.16,0.06-0.26,0.06h-0.85V247.86z"/>
<path class="st76" d="M261.55,249.54v-1.58h1.38c0.06,0,0.11-0.02,0.14-0.07s0.05-0.09,0.05-0.14v-0.99c0-0.06-0.03-0.1-0.06-0.13
	c-0.04-0.03-0.08-0.04-0.13-0.04h-4.3c-0.05,0-0.1,0.02-0.13,0.05c-0.04,0.03-0.05,0.08-0.05,0.13v0.99c0,0.07,0.02,0.12,0.05,0.15
	c0.04,0.03,0.08,0.05,0.13,0.05H260v1.51C260.53,249.5,261.04,249.52,261.55,249.54z"/>
<path class="st76" d="M269.52,250.03c0.02-0.15,0.06-0.3,0.06-0.45c0-0.28-0.04-0.55-0.11-0.81s-0.18-0.5-0.31-0.73
	c-0.13-0.23-0.29-0.44-0.48-0.62c-0.19-0.19-0.39-0.35-0.62-0.48c-0.23-0.13-0.47-0.23-0.73-0.31s-0.53-0.11-0.81-0.11
	c-0.28,0-0.55,0.04-0.81,0.11c-0.26,0.07-0.5,0.18-0.73,0.31s-0.43,0.29-0.62,0.48c-0.19,0.19-0.34,0.39-0.48,0.62
	c-0.13,0.23-0.24,0.47-0.31,0.73c-0.07,0.26-0.11,0.53-0.11,0.81c0,0.02,0.01,0.04,0.01,0.07c0.53,0.03,1.06,0.06,1.57,0.09
	c0-0.05-0.03-0.1-0.03-0.15c0-0.22,0.04-0.42,0.11-0.62c0.08-0.19,0.18-0.36,0.31-0.51c0.13-0.14,0.29-0.26,0.48-0.34
	c0.18-0.08,0.39-0.12,0.61-0.12c0.22,0,0.42,0.04,0.61,0.12c0.19,0.08,0.34,0.2,0.48,0.34c0.13,0.14,0.24,0.31,0.31,0.51
	s0.11,0.4,0.11,0.62c0,0.12-0.01,0.24-0.04,0.35C268.51,249.95,269.02,249.99,269.52,250.03z"/>
<path class="st76" d="M274.45,249.97c-0.1-0.19-0.23-0.36-0.41-0.5c-0.17-0.14-0.38-0.26-0.62-0.36c-0.24-0.1-0.5-0.2-0.78-0.29
	c-0.15-0.05-0.28-0.09-0.39-0.13c-0.11-0.04-0.2-0.08-0.28-0.13c-0.08-0.05-0.13-0.1-0.17-0.15c-0.04-0.05-0.06-0.12-0.06-0.19
	c0-0.08,0.02-0.14,0.05-0.19c0.03-0.05,0.08-0.09,0.14-0.13s0.13-0.06,0.2-0.07s0.16-0.02,0.25-0.02c0.08,0,0.17,0.01,0.25,0.04
	c0.08,0.03,0.16,0.06,0.24,0.1c0.08,0.04,0.15,0.08,0.21,0.13c0.06,0.05,0.12,0.09,0.18,0.14l0.04,0.03
	c0.04,0.03,0.07,0.06,0.1,0.08s0.06,0.03,0.1,0.03c0.04,0,0.09-0.02,0.14-0.07l0.61-0.65c0.04-0.04,0.06-0.07,0.08-0.1
	c0.02-0.03,0.03-0.06,0.03-0.1s-0.02-0.08-0.05-0.12s-0.08-0.1-0.15-0.15c-0.06-0.05-0.13-0.11-0.21-0.17
	c-0.08-0.06-0.17-0.11-0.26-0.17c-0.22-0.12-0.44-0.21-0.66-0.26s-0.46-0.08-0.7-0.08c-0.32,0-0.61,0.04-0.88,0.12
	c-0.26,0.08-0.48,0.19-0.67,0.33c-0.19,0.14-0.33,0.32-0.43,0.52c-0.1,0.2-0.15,0.43-0.15,0.67c0,0.23,0.04,0.45,0.12,0.64
	s0.2,0.37,0.36,0.52s0.36,0.3,0.6,0.43c0.24,0.13,0.52,0.25,0.84,0.36c0.07,0.02,0.16,0.05,0.26,0.09c0.1,0.04,0.19,0.08,0.28,0.13
	c0.65,0.06,1.29,0.12,1.9,0.18C274.56,250.28,274.52,250.11,274.45,249.97z"/>
<path class="st76" d="M240.22,246.64c-0.28-0.09-0.59-0.13-0.91-0.13c-0.28,0-0.55,0.04-0.81,0.11c-0.26,0.07-0.5,0.18-0.73,0.31
	s-0.43,0.29-0.62,0.48c-0.18,0.19-0.34,0.39-0.48,0.62c-0.13,0.23-0.24,0.47-0.31,0.73c-0.07,0.26-0.11,0.53-0.11,0.81
	c0,0.04,0.01,0.07,0.01,0.11c0.49-0.04,1-0.07,1.51-0.11c0,0,0-0.01,0-0.01c0-0.22,0.04-0.42,0.11-0.62
	c0.08-0.19,0.18-0.36,0.31-0.5c0.13-0.14,0.29-0.26,0.48-0.34c0.18-0.08,0.39-0.12,0.6-0.12c0.18,0,0.34,0.03,0.5,0.08
	c0.16,0.05,0.3,0.13,0.43,0.23c0.05,0.03,0.09,0.04,0.12,0.03c0.03-0.01,0.06-0.03,0.09-0.08l0.68-0.96
	c0.03-0.06,0.03-0.11,0.01-0.15c-0.02-0.04-0.05-0.08-0.1-0.1C240.77,246.86,240.5,246.73,240.22,246.64z"/>
</svg>
