<?xml version="1.0" encoding="utf-8"?>
<!-- Generator: Adobe Illustrator 26.0.1, SVG Export Plug-In . SVG Version: 6.00 Build 0)  -->
<svg version="1.1" id="Layer_1" xmlns="http://www.w3.org/2000/svg" xmlns:xlink="http://www.w3.org/1999/xlink" x="0px" y="0px"
	 viewBox="0 0 500 500" style="enable-background:new 0 0 500 500;" xml:space="preserve">
<style type="text/css">
	.st0{fill:#00ADE4;}
	.st1{fill:#00164E;}
</style>
<path class="st0" d="M256.73,162.49l-68.45,37.87v82.73l68.06,40.07l68.53-39.53l-0.39-83.03L256.73,162.49z M199.5,206.95
	l50.76-27.09v19.52l-32.21,17.81v19.77H199.5V206.95z M250.26,305.29l-50.76-30.83v-27.49h18.55v16.11l32.21,21.23V305.29z
	 M256.73,275.03l-29.53-18.05l0.61-33.2l28.92-15.37l30.13,17.57l-0.61,31L256.73,275.03z M313.26,274.46l-50.76,30.83v-20.99
	l32.94-21.23v-16.11h17.81V274.46z M313.26,236.96h-17.81V217.2l-32.94-17.81v-19.52l50.76,27.09V236.96z"/>
<path class="st1" d="M335.95,181.05c-4.88-5.61-24.65-18.3-42.46-28.8c-17.81-10.49-36.6-10.25-36.6-10.25h-0.36
	c0,0-18.79-0.24-36.6,10.25c-17.81,10.49-37.58,23.18-42.46,28.8c-4.88,5.61-17.57,19.28-17.57,45.15c0,25.87,0,48.56,6.34,61.98
	c6.34,13.42,21.6,26.25,34.37,33.68c16.91,9.83,27.62,20.01,53.97,20.99h4.27c26.36-0.98,41.78-12.66,53.97-20.99
	c16.38-11.19,28.02-20.25,34.37-33.68c6.34-13.42,6.34-36.12,6.34-61.98C353.52,200.33,340.83,186.66,335.95,181.05z M335.56,282.3
	c-5.53,11.7-15.68,19.6-29.95,29.35c-10.63,7.26-24.07,17.44-47.04,18.29h-3.72c-22.97-0.85-32.3-9.72-47.04-18.29
	c-11.13-6.47-24.42-17.65-29.95-29.35c-5.53-11.7-5.53-31.48-5.53-54.02c0-22.55,11.06-34.46,15.31-39.35
	c4.25-4.89,21.48-15.95,37.01-25.1c15.53-9.15,31.9-8.93,31.9-8.93h0.32c0,0,16.38-0.21,31.9,8.93
	c15.53,9.15,32.75,20.21,37.01,25.1c4.25,4.89,15.31,16.8,15.31,39.35C341.09,250.82,341.09,270.61,335.56,282.3z"/>
</svg>
