<?xml version="1.0" encoding="utf-8"?>
<!-- Generator: Adobe Illustrator 26.0.1, SVG Export Plug-In . SVG Version: 6.00 Build 0)  -->
<svg version="1.1" id="Layer_1" xmlns="http://www.w3.org/2000/svg" xmlns:xlink="http://www.w3.org/1999/xlink" x="0px" y="0px"
	 viewBox="0 0 500 500" style="enable-background:new 0 0 500 500;" xml:space="preserve">
<style type="text/css">
	.st0{fill:#FFFFFF;}
	.st1{fill:#00ADE4;}
	.st2{fill:#00164E;}
</style>
<rect x="111.61" y="111.17" class="st0" width="294.73" height="271.66"/>
<g>
	<g>
		<path class="st1" d="M259,131.65l-68.45,37.87v82.73l68.06,40.07l68.53-39.53l-0.39-83.03L259,131.65z M201.77,176.11l50.76-27.09
			v19.52l-32.21,17.81v19.77h-18.55V176.11z M252.52,274.46l-50.76-30.83v-27.49h18.55v16.11l32.21,21.23V274.46z M259,244.2
			l-29.53-18.05l0.61-33.2L259,177.58l30.13,17.57l-0.61,31L259,244.2z M315.52,243.62l-50.76,30.83v-20.99l32.94-21.23v-16.11
			h17.81V243.62z M315.52,206.13h-17.81v-19.77l-32.94-17.81v-19.52l50.76,27.09V206.13z"/>
		<path class="st2" d="M338.22,150.21c-4.88-5.61-24.65-18.3-42.46-28.8c-17.81-10.49-36.6-10.25-36.6-10.25h-0.36
			c0,0-18.79-0.24-36.6,10.25c-17.81,10.49-37.58,23.18-42.46,28.8c-4.88,5.61-17.57,19.28-17.57,45.15c0,25.87,0,48.56,6.34,61.98
			c6.34,13.42,21.6,26.25,34.37,33.68c16.91,9.83,27.62,20.01,53.97,20.99h4.27c26.36-0.98,41.78-12.66,53.97-20.99
			c16.38-11.19,28.02-20.25,34.37-33.68c6.34-13.42,6.34-36.12,6.34-61.98C355.79,169.49,343.1,155.83,338.22,150.21z
			 M337.82,251.47c-5.53,11.7-15.68,19.6-29.95,29.35c-10.63,7.26-24.07,17.44-47.04,18.29h-3.72c-22.97-0.85-32.3-9.72-47.04-18.29
			c-11.13-6.47-24.42-17.65-29.95-29.35c-5.53-11.7-5.53-31.48-5.53-54.02c0-22.55,11.06-34.46,15.31-39.35
			c4.25-4.89,21.48-15.95,37.01-25.1c15.53-9.15,31.9-8.93,31.9-8.93h0.32c0,0,16.38-0.21,31.9,8.93
			c15.53,9.15,32.75,20.21,37.01,25.1c4.25,4.89,15.31,16.8,15.31,39.35C343.35,219.99,343.35,239.77,337.82,251.47z"/>
	</g>
	<g>
		<path class="st2" d="M121.6,369.16c-3.19-1.72-5.66-4.12-7.39-7.22c-1.74-3.1-2.6-6.66-2.6-10.7c0-4.03,0.89-7.61,2.66-10.72
			c1.77-3.12,4.25-5.52,7.42-7.22c3.17-1.7,6.79-2.55,10.86-2.55c5.79,0,10.75,2.04,14.9,6.1l-5.66,5.66
			c-2.5-2.39-5.51-3.58-9.02-3.58c-2.35,0-4.43,0.51-6.24,1.54c-1.81,1.03-3.21,2.47-4.2,4.34c-0.99,1.87-1.48,4.01-1.48,6.44
			s0.49,4.57,1.48,6.44c0.99,1.87,2.39,3.31,4.2,4.34c1.81,1.03,3.89,1.54,6.24,1.54c1.87,0,3.66-0.34,5.38-1.01
			c1.72-0.67,3.21-1.64,4.48-2.91l5.38,5.99c-4.22,4.07-9.32,6.1-15.29,6.1C128.5,371.74,124.79,370.88,121.6,369.16z"/>
		<path class="st2" d="M171.58,343.26c1.27,0.47,2.37,1.15,3.3,2.04l-3.7,6.44c-0.78-0.49-1.51-0.84-2.18-1.06
			c-0.67-0.22-1.38-0.34-2.13-0.34c-1.87,0-3.34,0.6-4.42,1.79c-1.08,1.2-1.62,2.95-1.62,5.26v13.44h-8.79v-27.66h7.67l0.67,3.47
			c1.79-2.72,4.26-4.09,7.39-4.09C169.04,342.56,170.31,342.79,171.58,343.26z"/>
		<path class="st2" d="M197.12,343.18h9.52l-17.25,39.65h-9.35l5.38-12.38l-10.75-27.27h9.46l3.19,8.74l3.02,9.02l3.25-9.02
			L197.12,343.18z"/>
		<path class="st2" d="M234.3,344.44c2.02,1.21,3.58,2.91,4.7,5.1c1.12,2.18,1.68,4.68,1.68,7.48s-0.56,5.29-1.68,7.48
			c-1.12,2.18-2.69,3.88-4.7,5.1c-2.02,1.21-4.31,1.82-6.89,1.82c-3.44,0-6.29-1.08-8.57-3.25v14.67h-8.79v-39.65h7.62l0.56,3.25
			c2.31-2.54,5.38-3.81,9.18-3.81C229.99,342.62,232.29,343.22,234.3,344.44z M230.1,362.08c1.23-1.29,1.85-2.98,1.85-5.07
			s-0.62-3.78-1.85-5.07s-2.82-1.93-4.76-1.93c-1.94,0-3.52,0.65-4.73,1.96c-1.21,1.31-1.82,2.99-1.82,5.04
			c0,2.05,0.61,3.73,1.82,5.04c1.21,1.31,2.79,1.96,4.73,1.96C227.28,364.01,228.87,363.36,230.1,362.08z"/>
		<path class="st2" d="M265.21,369.78c-2.17,1.08-4.61,1.62-7.34,1.62c-3.02,0-5.41-0.85-7.17-2.55c-1.76-1.7-2.63-4.43-2.63-8.2
			v-10.47h-4.7v-7h4.7v-6.89l8.74-0.95v7.84h6.89v7h-6.89v10.47c0,1.12,0.28,1.95,0.84,2.49c0.56,0.54,1.32,0.81,2.3,0.81
			c1.08,0,2.15-0.26,3.19-0.78L265.21,369.78z"/>
		<path class="st2" d="M274.54,369.64c-2.3-1.21-4.06-2.9-5.29-5.07c-1.23-2.16-1.85-4.68-1.85-7.56c0-2.87,0.62-5.39,1.85-7.56
			s3-3.85,5.29-5.07c2.3-1.21,4.97-1.82,8.04-1.82c3.06,0,5.75,0.61,8.06,1.82c2.31,1.21,4.09,2.9,5.32,5.07
			c1.23,2.17,1.85,4.69,1.85,7.56c0,2.88-0.62,5.4-1.85,7.56c-1.23,2.17-3.01,3.86-5.32,5.07s-5,1.82-8.06,1.82
			C279.51,371.46,276.83,370.85,274.54,369.64z M287.28,362.05c1.19-1.31,1.79-2.99,1.79-5.04c0-2.05-0.6-3.73-1.79-5.04
			c-1.2-1.31-2.76-1.96-4.7-1.96c-1.9,0-3.45,0.65-4.65,1.96c-1.2,1.31-1.79,2.99-1.79,5.04c0,2.05,0.6,3.73,1.79,5.04
			c1.19,1.31,2.74,1.96,4.65,1.96C284.51,364.01,286.08,363.36,287.28,362.05z"/>
		<path class="st1" d="M336.11,354.12c1.12,1.7,1.68,3.61,1.68,5.74c0,3.43-1.32,6.12-3.95,8.06c-2.63,1.94-6.26,2.91-10.89,2.91
			h-19.38v-39.2h19.38c4.22,0,7.54,0.93,9.97,2.8c2.43,1.87,3.64,4.41,3.64,7.62c0,1.9-0.44,3.58-1.32,5.01
			c-0.88,1.44-2.1,2.53-3.67,3.28C333.48,351.17,334.99,352.43,336.11,354.12z M312.59,339.2v7.78h10.53c1.46,0,2.58-0.34,3.36-1.01
			s1.18-1.62,1.18-2.86c0-1.23-0.4-2.19-1.2-2.88s-1.91-1.04-3.33-1.04H312.59z M327.4,361.94c0.91-0.78,1.37-1.87,1.37-3.25
			c0-1.42-0.46-2.51-1.37-3.28c-0.92-0.76-2.19-1.15-3.84-1.15h-10.98v8.85h10.98C325.21,363.11,326.49,362.72,327.4,361.94z"/>
		<path class="st1" d="M370.94,343.18v27.66h-7.62l-0.56-3.19c-1.05,1.23-2.32,2.18-3.84,2.83c-1.51,0.65-3.16,0.98-4.96,0.98
			c-3.4,0-6.1-1.12-8.12-3.36c-2.02-2.24-3.02-5.34-3.02-9.3v-15.62h8.79v15.12c0,1.79,0.44,3.19,1.32,4.2
			c0.88,1.01,2.08,1.51,3.61,1.51c1.68,0,3.03-0.59,4.06-1.76c1.03-1.18,1.54-2.7,1.54-4.56v-14.5H370.94z"/>
		<path class="st1" d="M396.81,343.18h9.52l-17.25,39.65h-9.35l5.38-12.38l-10.75-27.27h9.46l3.19,8.74l3.02,9.02l3.25-9.02
			L396.81,343.18z"/>
	</g>
</g>
</svg>
